<svg width="3687" height="615" viewBox="0 0 3687 615" fill="none" xmlns="http://www.w3.org/2000/svg">
<rect width="3687" height="615" rx="50" fill="white"/>
<path d="M1110.2 415.1C1096.2 415.1 1083.6 412.7 1072.4 407.9C1061.2 402.9 1052.4 395.9 1046 386.9C1039.6 377.9 1036.4 367.4 1036.4 355.4H1073C1073.8 364.4 1077.3 371.8 1083.5 377.6C1089.9 383.4 1098.8 386.3 1110.2 386.3C1122 386.3 1131.2 383.5 1137.8 377.9C1144.4 372.1 1147.7 364.7 1147.7 355.7C1147.7 348.7 1145.6 343 1141.4 338.6C1137.4 334.2 1132.3 330.8 1126.1 328.4C1120.1 326 1111.7 323.4 1100.9 320.6C1087.3 317 1076.2 313.4 1067.6 309.8C1059.2 306 1052 300.2 1046 292.4C1040 284.6 1037 274.2 1037 261.2C1037 249.2 1040 238.7 1046 229.7C1052 220.7 1060.4 213.8 1071.2 209C1082 204.2 1094.5 201.8 1108.7 201.8C1128.9 201.8 1145.4 206.9 1158.2 217.1C1171.2 227.1 1178.4 240.9 1179.8 258.5H1142C1141.4 250.9 1137.8 244.4 1131.2 239C1124.6 233.6 1115.9 230.9 1105.1 230.9C1095.3 230.9 1087.3 233.4 1081.1 238.4C1074.9 243.4 1071.8 250.6 1071.8 260C1071.8 266.4 1073.7 271.7 1077.5 275.9C1081.5 279.9 1086.5 283.1 1092.5 285.5C1098.5 287.9 1106.7 290.5 1117.1 293.3C1130.9 297.1 1142.1 300.9 1150.7 304.7C1159.5 308.5 1166.9 314.4 1172.9 322.4C1179.1 330.2 1182.2 340.7 1182.2 353.9C1182.2 364.5 1179.3 374.5 1173.5 383.9C1167.9 393.3 1159.6 400.9 1148.6 406.7C1137.8 412.3 1125 415.1 1110.2 415.1ZM1256.75 272C1262.55 264.4 1270.45 258 1280.45 252.8C1290.45 247.6 1301.75 245 1314.35 245C1328.75 245 1341.85 248.6 1353.65 255.8C1365.65 262.8 1375.05 272.7 1381.85 285.5C1388.65 298.3 1392.05 313 1392.05 329.6C1392.05 346.2 1388.65 361.1 1381.85 374.3C1375.05 387.3 1365.65 397.5 1353.65 404.9C1341.85 412.1 1328.75 415.7 1314.35 415.7C1301.75 415.7 1290.55 413.2 1280.75 408.2C1270.95 403 1262.95 396.6 1256.75 389V491.6H1222.55V247.7H1256.75V272ZM1357.25 329.6C1357.25 318.2 1354.85 308.4 1350.05 300.2C1345.45 291.8 1339.25 285.5 1331.45 281.3C1323.85 276.9 1315.65 274.7 1306.85 274.7C1298.25 274.7 1290.05 276.9 1282.25 281.3C1274.65 285.7 1268.45 292.1 1263.65 300.5C1259.05 308.9 1256.75 318.8 1256.75 330.2C1256.75 341.6 1259.05 351.6 1263.65 360.2C1268.45 368.6 1274.65 375 1282.25 379.4C1290.05 383.8 1298.25 386 1306.85 386C1315.65 386 1323.85 383.8 1331.45 379.4C1339.25 374.8 1345.45 368.2 1350.05 359.6C1354.85 351 1357.25 341 1357.25 329.6ZM1577.38 326.3C1577.38 332.5 1576.98 338.1 1576.18 343.1H1449.88C1450.88 356.3 1455.78 366.9 1464.58 374.9C1473.38 382.9 1484.18 386.9 1496.98 386.9C1515.38 386.9 1528.38 379.2 1535.98 363.8H1572.87C1567.88 379 1558.78 391.5 1545.58 401.3C1532.58 410.9 1516.38 415.7 1496.98 415.7C1481.18 415.7 1466.98 412.2 1454.38 405.2C1441.98 398 1432.18 388 1424.98 375.2C1417.98 362.2 1414.48 347.2 1414.48 330.2C1414.48 313.2 1417.88 298.3 1424.68 285.5C1431.68 272.5 1441.38 262.5 1453.78 255.5C1466.38 248.5 1480.78 245 1496.98 245C1512.58 245 1526.48 248.4 1538.68 255.2C1550.88 262 1560.38 271.6 1567.18 284C1573.98 296.2 1577.38 310.3 1577.38 326.3ZM1541.68 315.5C1541.48 302.9 1536.98 292.8 1528.18 285.2C1519.38 277.6 1508.48 273.8 1495.48 273.8C1483.68 273.8 1473.58 277.6 1465.18 285.2C1456.78 292.6 1451.78 302.7 1450.18 315.5H1541.68ZM1694.43 245C1707.43 245 1719.03 247.7 1729.23 253.1C1739.63 258.5 1747.73 266.5 1753.53 277.1C1759.33 287.7 1762.23 300.5 1762.23 315.5V413H1728.33V320.6C1728.33 305.8 1724.63 294.5 1717.23 286.7C1709.83 278.7 1699.73 274.7 1686.93 274.7C1674.13 274.7 1663.93 278.7 1656.33 286.7C1648.93 294.5 1645.23 305.8 1645.23 320.6V413H1611.03V247.7H1645.23V266.6C1650.83 259.8 1657.93 254.5 1666.53 250.7C1675.33 246.9 1684.63 245 1694.43 245ZM1845.76 275.6V367.1C1845.76 373.3 1847.16 377.8 1849.96 380.6C1852.96 383.2 1857.96 384.5 1864.96 384.5H1885.96V413H1858.96C1843.56 413 1831.76 409.4 1823.56 402.2C1815.36 395 1811.26 383.3 1811.26 367.1V275.6H1791.76V247.7H1811.26V206.6H1845.76V247.7H1885.96V275.6H1845.76ZM1989.18 415.7C1973.58 415.7 1959.48 412.2 1946.88 405.2C1934.28 398 1924.38 388 1917.18 375.2C1909.98 362.2 1906.38 347.2 1906.38 330.2C1906.38 313.4 1910.08 298.5 1917.48 285.5C1924.88 272.5 1934.98 262.5 1947.78 255.5C1960.58 248.5 1974.88 245 1990.68 245C2006.48 245 2020.78 248.5 2033.58 255.5C2046.38 262.5 2056.48 272.5 2063.88 285.5C2071.28 298.5 2074.98 313.4 2074.98 330.2C2074.98 347 2071.18 361.9 2063.58 374.9C2055.98 387.9 2045.58 398 2032.38 405.2C2019.38 412.2 2004.98 415.7 1989.18 415.7ZM1989.18 386C1997.98 386 2006.18 383.9 2013.78 379.7C2021.58 375.5 2027.88 369.2 2032.68 360.8C2037.48 352.4 2039.88 342.2 2039.88 330.2C2039.88 318.2 2037.58 308.1 2032.98 299.9C2028.38 291.5 2022.28 285.2 2014.68 281C2007.08 276.8 1998.88 274.7 1990.08 274.7C1981.28 274.7 1973.08 276.8 1965.48 281C1958.08 285.2 1952.18 291.5 1947.78 299.9C1943.38 308.1 1941.18 318.2 1941.18 330.2C1941.18 348 1945.68 361.8 1954.68 371.6C1963.88 381.2 1975.38 386 1989.18 386ZM2097.39 329.6C2097.39 313 2100.79 298.3 2107.59 285.5C2114.59 272.7 2123.99 262.8 2135.79 255.8C2147.79 248.6 2161.09 245 2175.69 245C2186.49 245 2197.09 247.4 2207.49 252.2C2218.09 256.8 2226.49 263 2232.69 270.8V191H2267.19V413H2232.69V388.1C2227.09 396.1 2219.29 402.7 2209.29 407.9C2199.49 413.1 2188.19 415.7 2175.39 415.7C2160.99 415.7 2147.79 412.1 2135.79 404.9C2123.99 397.5 2114.59 387.3 2107.59 374.3C2100.79 361.1 2097.39 346.2 2097.39 329.6ZM2232.69 330.2C2232.69 318.8 2230.29 308.9 2225.49 300.5C2220.89 292.1 2214.79 285.7 2207.19 281.3C2199.59 276.9 2191.39 274.7 2182.59 274.7C2173.79 274.7 2165.59 276.9 2157.99 281.3C2150.39 285.5 2144.19 291.8 2139.39 300.2C2134.79 308.4 2132.49 318.2 2132.49 329.6C2132.49 341 2134.79 351 2139.39 359.6C2144.19 368.2 2150.39 374.8 2157.99 379.4C2165.79 383.8 2173.99 386 2182.59 386C2191.39 386 2199.59 383.8 2207.19 379.4C2214.79 375 2220.89 368.6 2225.49 360.2C2230.29 351.6 2232.69 341.6 2232.69 330.2ZM2300.71 329.6C2300.71 313 2304.11 298.3 2310.91 285.5C2317.91 272.7 2327.31 262.8 2339.11 255.8C2351.11 248.6 2364.31 245 2378.71 245C2391.71 245 2403.01 247.6 2412.61 252.8C2422.41 257.8 2430.21 264.1 2436.01 271.7V247.7H2470.51V413H2436.01V388.4C2430.21 396.2 2422.31 402.7 2412.31 407.9C2402.31 413.1 2390.91 415.7 2378.11 415.7C2363.91 415.7 2350.91 412.1 2339.11 404.9C2327.31 397.5 2317.91 387.3 2310.91 374.3C2304.11 361.1 2300.71 346.2 2300.71 329.6ZM2436.01 330.2C2436.01 318.8 2433.61 308.9 2428.81 300.5C2424.21 292.1 2418.11 285.7 2410.51 281.3C2402.91 276.9 2394.71 274.7 2385.91 274.7C2377.11 274.7 2368.91 276.9 2361.31 281.3C2353.71 285.5 2347.51 291.8 2342.71 300.2C2338.11 308.4 2335.81 318.2 2335.81 329.6C2335.81 341 2338.11 351 2342.71 359.6C2347.51 368.2 2353.71 374.8 2361.31 379.4C2369.11 383.8 2377.31 386 2385.91 386C2394.71 386 2402.91 383.8 2410.51 379.4C2418.11 375 2424.21 368.6 2428.81 360.2C2433.61 351.6 2436.01 341.6 2436.01 330.2ZM2664.23 247.7L2562.83 490.7H2527.43L2561.03 410.3L2495.93 247.7H2534.03L2580.53 373.7L2628.83 247.7H2664.23Z" fill="#1E293B"/>
</svg>
